<?xml version="1.0" encoding="iso-8859-1"?>
<!-- Uploaded to: SVG Repo, www.svgrepo.com, Generator: SVG Repo Mixer Tools -->
<svg version="1.1" id="Layer_1" xmlns="http://www.w3.org/2000/svg" xmlns:xlink="http://www.w3.org/1999/xlink" 
	 viewBox="0 0 511.999 511.999" xml:space="preserve">
<path style="fill:#C21800;" d="M450.313,511.999H61.752c-7.537,0-13.647-6.11-13.647-13.647V224.041h415.854v274.311
	C463.96,505.889,457.85,511.999,450.313,511.999z"/>
<g>
	<rect x="84.318" y="222.712" style="fill:#FFFFFF;" width="68.671" height="289.287"/>
	<rect x="221.698" y="222.79" style="fill:#FFFFFF;" width="68.671" height="274.171"/>
	<rect x="359.001" y="222.79" style="fill:#FFFFFF;" width="68.671" height="289.209"/>
</g>
<path style="fill:#9D2217;" d="M312.585,49.843c0.592,0.984,0.609,2.211,0.043,3.21c-0.565,1-1.625,1.617-2.774,1.617h-54.885
	V17.636h54.885c1.149,0,2.208,0.618,2.774,1.617c0.565,1,0.549,2.226-0.043,3.21l-8.235,13.689L312.585,49.843z"/>
<circle style="fill:#C6C5CA;" cx="118.657" cy="222.712" r="34.335"/>
<circle style="fill:#797882;" cx="393.34" cy="222.712" r="34.335"/>
<polygon style="fill:#E61F00;" points="255.999,62.224 15.65,222.715 496.349,222.715 "/>
<g>
	<path style="fill:#9D2217;" d="M84.321,222.715c0,18.963-15.372,34.335-34.335,34.335s-34.335-15.372-34.335-34.335L84.321,222.715
		L84.321,222.715z"/>
	<circle style="fill:#9D2217;" cx="187.325" cy="222.712" r="34.335"/>
</g>
<circle style="fill:#C6C5CA;" cx="256.004" cy="222.712" r="34.335"/>
<g>
	<circle style="fill:#9D2217;" cx="324.672" cy="222.712" r="34.335"/>
	<path style="fill:#9D2217;" d="M496.349,222.715c0,18.963-15.372,34.335-34.335,34.335s-34.335-15.372-34.335-34.335
		L496.349,222.715L496.349,222.715z"/>
</g>
<polygon points="221.664,222.715 255.999,62.224 290.335,222.715 "/>
<polygon style="fill:#E61F00;" points="221.664,222.715 152.992,222.715 255.999,62.224 "/>
<g>
	<polygon style="fill:#EFEFEF;" points="84.321,222.715 255.999,62.224 152.992,222.715 	"/>
	<polygon style="fill:#EFEFEF;" points="290.335,222.715 255.999,62.224 221.664,222.715 	"/>
</g>
<polygon style="fill:#E61F00;" points="290.335,222.715 359.006,222.715 255.999,62.224 "/>
<polygon style="fill:#C6C5CA;" points="427.678,222.715 255.999,62.224 359.006,222.715 "/>
<path style="fill:#2D2E30;" d="M254.97,92.883c-9.74,0-17.636-7.896-17.636-17.636v-57.61C237.334,7.896,245.231,0,254.97,0
	c9.74,0,17.636,7.896,17.636,17.636v57.61C272.607,84.987,264.71,92.883,254.97,92.883z"/>
<path style="fill:#C21800;" d="M206.155,95.507c10.755,16.084,29.076,26.679,49.877,26.679c20.787,0,39.1-10.581,49.857-26.649
	l-49.891-33.314L206.155,95.507z"/>
<path style="fill:#770D01;" d="M255.999,62.224v59.961c0.011,0,0.022,0.001,0.033,0.001c20.787,0,39.1-10.581,49.857-26.649
	L255.999,62.224z"/>
<polygon style="fill:#3E3E42;" points="254.97,272.062 177.665,511.999 332.275,511.999 "/>
<polygon style="fill:#2D2E30;" points="254.97,511.999 332.275,511.999 254.97,272.062 254.97,272.062 "/>
</svg>