<?xml version="1.0" encoding="iso-8859-1"?>
<!-- Uploaded to: SVG Repo, www.svgrepo.com, Generator: SVG Repo Mixer Tools -->
<svg version="1.1" id="Layer_1" xmlns="http://www.w3.org/2000/svg" xmlns:xlink="http://www.w3.org/1999/xlink" 
	 viewBox="0 0 512 512" xml:space="preserve">
<rect x="81.086" y="184.181" style="fill:#3D3D3B;" width="349.828" height="229.357"/>
<g>
	<rect x="57.919" y="184.181" style="fill:#E6E2E0;" width="46.335" height="229.357"/>
	<rect x="407.747" y="184.181" style="fill:#E6E2E0;" width="46.335" height="229.357"/>
	<rect x="292.686" y="184.181" style="fill:#E6E2E0;" width="46.335" height="229.357"/>
	<rect x="172.98" y="184.181" style="fill:#E6E2E0;" width="46.335" height="229.357"/>
</g>
<g>
	<rect x="34.751" y="396.162" style="fill:#CCC4C1;" width="442.498" height="69.502"/>
	<polygon style="fill:#CCC4C1;" points="477.249,150.588 34.751,150.588 256,11.583 	"/>
</g>
<g>
	<rect x="34.751" y="150.588" style="fill:#ADA7A4;" width="442.498" height="46.335"/>
	<rect x="11.584" y="442.497" style="fill:#ADA7A4;" width="488.833" height="57.919"/>
</g>
<g>
	<path style="fill:#11113F;" d="M34.751,162.172h442.498c5.163,0,9.703-3.416,11.131-8.376c1.428-4.961-0.598-10.269-4.968-13.015
		L262.163,1.775c-3.769-2.367-8.557-2.367-12.326,0L28.587,140.78c-4.371,2.747-6.397,8.054-4.968,13.015
		C25.049,158.755,29.588,162.172,34.751,162.172z M256,25.264l181.037,113.74H74.963L256,25.264z"/>
	<path style="fill:#11113F;" d="M500.416,430.914h-11.584v-34.751c0-6.397-5.187-11.584-11.584-11.584h-11.584V208.506h11.584
		c6.397,0,11.584-5.187,11.584-11.584s-5.187-11.584-11.584-11.584H34.751c-6.397,0-11.584,5.187-11.584,11.584
		s5.187,11.584,11.584,11.584h11.584v176.072H34.751c-6.397,0-11.584,5.187-11.584,11.584v34.751H11.584
		C5.187,430.914,0,436.101,0,442.497v57.919C0,506.812,5.187,512,11.584,512h488.833c6.397,0,11.584-5.187,11.584-11.584v-57.919
		C512,436.101,506.813,430.914,500.416,430.914z M442.498,384.579H419.33V208.506h23.167V384.579z M350.601,384.579V208.506h45.562
		v176.072H350.601z M304.266,384.579V208.506h23.167v176.072H304.266z M230.902,384.579V208.506h50.197v176.072H230.902z
		 M184.567,384.579V208.506h23.167v176.072H184.567z M115.837,384.579V208.506h45.562v176.072H115.837z M69.502,208.506H92.67
		v176.072H69.502V208.506z M488.833,488.832H23.167v-34.751h93.377c6.397,0,11.584-5.187,11.584-11.584
		c0-6.397-5.187-11.584-11.584-11.584h-70.21v-23.167h419.33v23.167H156.059c-6.397,0-11.584,5.187-11.584,11.584
		c0,6.397,5.187,11.584,11.584,11.584h332.773V488.832z"/>
</g>
</svg>